<?xml version="1.0" encoding="UTF-8"?>
<svg xmlns="http://www.w3.org/2000/svg" width="1280" height="720" viewBox="0 0 1280 720">
<title>Substratism VIZ concept topology and scale lattice</title>
<desc>Four research branches share an audiovisual state with an eight-item corrected scale lattice.</desc>
<defs>
<radialGradient id="halo" cx="50%" cy="50%" r="50%"><stop offset="0" stop-color="#d4a85f" stop-opacity=".19"/><stop offset="1" stop-color="#d4a85f" stop-opacity="0"/></radialGradient>
<pattern id="grid" width="36" height="36" patternUnits="userSpaceOnUse"><path d="M36 0H0V36" fill="none" stroke="#29312f" stroke-opacity=".34"/></pattern>
</defs>
<rect width="1280" height="720" fill="#070909"/>
<rect width="1280" height="720" fill="url(#grid)"/>
<circle cx="1000" cy="354" r="280" fill="url(#halo)"/>
<text x="48" y="50" fill="#d4a85f" font-family="monospace" font-size="11" font-weight="700" letter-spacing="2">QSOL-IMC / PSYCHOMETRIC RECEIVER LAB</text>
<text x="48" y="87" fill="#e5e4dc" font-family="sans-serif" font-size="34" font-weight="700">Substratism VIZ</text>
<text x="48" y="111" fill="#929b96" font-family="sans-serif" font-size="13">Moral substrate topology, measured associations, and one shared audiovisual signal path.</text>
<g><rect x="54.0" y="334.0" width="150.0" height="42.0" rx="3" fill="#181712" stroke="#d4a85f" stroke-opacity=".82"/><text x="66.0" y="359.0" fill="#e5e4dc" font-family="monospace" font-size="14" font-weight="700">SUBSTRATISM</text></g>
<text x="54" y="396" fill="#929b96" font-family="monospace" font-size="9">configured score 4.00 / 7</text>
<path d="M204.0,355.0 C243.4,355.0 246.6,178.0 286.0,178.0" fill="none" stroke="#70a39a" stroke-opacity="0.58" stroke-width="1.4"/>
<g><rect x="286.0" y="159.0" width="220.0" height="38.0" rx="3" fill="#111716" stroke="#70a39a" stroke-opacity=".82"/><text x="298.0" y="182.0" fill="#929b96" font-family="monospace" font-size="11" font-weight="600">DEFINITION AND CORE CONCEPT</text></g>
<path d="M506.0,178.0 C541.5,178.0 544.5,130.0 580.0,130.0" fill="none" stroke="#70a39a" stroke-opacity="0.42" stroke-width="1.4"/>
<g><rect x="580.0" y="116.5" width="224.0" height="27.0" rx="3" fill="#111716" stroke="#70a39a" stroke-opacity=".82"/><text x="592.0" y="134.0" fill="#929b96" font-family="monospace" font-size="11" font-weight="600">non-biological substrate</text></g>
<path d="M506.0,178.0 C541.5,178.0 544.5,162.0 580.0,162.0" fill="none" stroke="#70a39a" stroke-opacity="0.42" stroke-width="1.4"/>
<g><rect x="580.0" y="148.5" width="224.0" height="27.0" rx="3" fill="#111716" stroke="#70a39a" stroke-opacity=".82"/><text x="592.0" y="166.0" fill="#929b96" font-family="monospace" font-size="11" font-weight="600">chips rather than neurons</text></g>
<path d="M506.0,178.0 C541.5,178.0 544.5,194.0 580.0,194.0" fill="none" stroke="#70a39a" stroke-opacity="0.42" stroke-width="1.4"/>
<g><rect x="580.0" y="180.5" width="224.0" height="27.0" rx="3" fill="#111716" stroke="#70a39a" stroke-opacity=".82"/><text x="592.0" y="198.0" fill="#929b96" font-family="monospace" font-size="11" font-weight="600">direct substrate bias</text></g>
<path d="M506.0,178.0 C541.5,178.0 544.5,226.0 580.0,226.0" fill="none" stroke="#70a39a" stroke-opacity="0.42" stroke-width="1.4"/>
<g><rect x="580.0" y="212.5" width="224.0" height="27.0" rx="3" fill="#111716" stroke="#70a39a" stroke-opacity=".82"/><text x="592.0" y="230.0" fill="#929b96" font-family="monospace" font-size="11" font-weight="600">indirect capacity denial</text></g>
<path d="M204.0,355.0 C243.4,355.0 246.6,302.0 286.0,302.0" fill="none" stroke="#70a39a" stroke-opacity="0.58" stroke-width="1.4"/>
<g><rect x="286.0" y="283.0" width="220.0" height="38.0" rx="3" fill="#111716" stroke="#70a39a" stroke-opacity=".82"/><text x="298.0" y="306.0" fill="#929b96" font-family="monospace" font-size="11" font-weight="600">8-ITEM VALIDATED SCALE</text></g>
<path d="M506.0,302.0 C541.5,302.0 544.5,254.0 580.0,254.0" fill="none" stroke="#70a39a" stroke-opacity="0.42" stroke-width="1.4"/>
<g><rect x="580.0" y="240.5" width="224.0" height="27.0" rx="3" fill="#111716" stroke="#70a39a" stroke-opacity=".82"/><text x="592.0" y="258.0" fill="#929b96" font-family="monospace" font-size="11" font-weight="600">unidimensional / 8 items</text></g>
<path d="M506.0,302.0 C541.5,302.0 544.5,286.0 580.0,286.0" fill="none" stroke="#70a39a" stroke-opacity="0.42" stroke-width="1.4"/>
<g><rect x="580.0" y="272.5" width="224.0" height="27.0" rx="3" fill="#111716" stroke="#70a39a" stroke-opacity=".82"/><text x="592.0" y="290.0" fill="#929b96" font-family="monospace" font-size="11" font-weight="600">7-point / item 2 reversed</text></g>
<path d="M506.0,302.0 C541.5,302.0 544.5,318.0 580.0,318.0" fill="none" stroke="#70a39a" stroke-opacity="0.42" stroke-width="1.4"/>
<g><rect x="580.0" y="304.5" width="224.0" height="27.0" rx="3" fill="#111716" stroke="#70a39a" stroke-opacity=".82"/><text x="592.0" y="322.0" fill="#929b96" font-family="monospace" font-size="11" font-weight="600">alpha = 0.84-0.91</text></g>
<path d="M506.0,302.0 C541.5,302.0 544.5,350.0 580.0,350.0" fill="none" stroke="#70a39a" stroke-opacity="0.42" stroke-width="1.4"/>
<g><rect x="580.0" y="336.5" width="224.0" height="27.0" rx="3" fill="#111716" stroke="#70a39a" stroke-opacity=".82"/><text x="592.0" y="354.0" fill="#929b96" font-family="monospace" font-size="11" font-weight="600">substrate / rights / tools / capacity</text></g>
<path d="M204.0,355.0 C243.4,355.0 246.6,426.0 286.0,426.0" fill="none" stroke="#d4a85f" stroke-opacity="0.58" stroke-width="1.4"/>
<g><rect x="286.0" y="407.0" width="220.0" height="38.0" rx="3" fill="#111716" stroke="#d4a85f" stroke-opacity=".82"/><text x="298.0" y="430.0" fill="#929b96" font-family="monospace" font-size="11" font-weight="600">RELATION TO OTHER PREJUDICES</text></g>
<path d="M506.0,426.0 C541.5,426.0 544.5,378.0 580.0,378.0" fill="none" stroke="#d4a85f" stroke-opacity="0.42" stroke-width="1.4"/>
<g><rect x="580.0" y="364.5" width="224.0" height="27.0" rx="3" fill="#111716" stroke="#d4a85f" stroke-opacity=".82"/><text x="592.0" y="382.0" fill="#929b96" font-family="monospace" font-size="11" font-weight="600">racism / sexism / homophobia: n.s.</text></g>
<path d="M506.0,426.0 C541.5,426.0 544.5,410.0 580.0,410.0" fill="none" stroke="#d4a85f" stroke-opacity="0.42" stroke-width="1.4"/>
<g><rect x="580.0" y="396.5" width="224.0" height="27.0" rx="3" fill="#111716" stroke="#d4a85f" stroke-opacity=".82"/><text x="592.0" y="414.0" fill="#929b96" font-family="monospace" font-size="11" font-weight="600">speciesism .12 / transphobia .14</text></g>
<path d="M506.0,426.0 C541.5,426.0 544.5,442.0 580.0,442.0" fill="none" stroke="#d4a85f" stroke-opacity="0.42" stroke-width="1.4"/>
<g><rect x="580.0" y="428.5" width="224.0" height="27.0" rx="3" fill="#111716" stroke="#d4a85f" stroke-opacity=".82"/><text x="592.0" y="446.0" fill="#929b96" font-family="monospace" font-size="11" font-weight="600">xenophobia .10 / SDO .01-.03</text></g>
<path d="M506.0,426.0 C541.5,426.0 544.5,474.0 580.0,474.0" fill="none" stroke="#d4a85f" stroke-opacity="0.42" stroke-width="1.4"/>
<g><rect x="580.0" y="460.5" width="224.0" height="27.0" rx="3" fill="#111716" stroke="#d4a85f" stroke-opacity=".82"/><text x="592.0" y="478.0" fill="#929b96" font-family="monospace" font-size="11" font-weight="600">demographic paradox</text></g>
<path d="M204.0,355.0 C243.4,355.0 246.6,550.0 286.0,550.0" fill="none" stroke="#d4a85f" stroke-opacity="0.58" stroke-width="1.4"/>
<g><rect x="286.0" y="531.0" width="220.0" height="38.0" rx="3" fill="#111716" stroke="#d4a85f" stroke-opacity=".82"/><text x="298.0" y="554.0" fill="#929b96" font-family="monospace" font-size="11" font-weight="600">MORAL AND BEHAVIOURAL IMPACT</text></g>
<path d="M506.0,550.0 C541.5,550.0 544.5,502.0 580.0,502.0" fill="none" stroke="#d4a85f" stroke-opacity="0.42" stroke-width="1.4"/>
<g><rect x="580.0" y="488.5" width="224.0" height="27.0" rx="3" fill="#111716" stroke="#d4a85f" stroke-opacity=".82"/><text x="592.0" y="506.0" fill="#929b96" font-family="monospace" font-size="11" font-weight="600">dilemmas beta -.29 / -.23</text></g>
<path d="M506.0,550.0 C541.5,550.0 544.5,534.0 580.0,534.0" fill="none" stroke="#d4a85f" stroke-opacity="0.42" stroke-width="1.4"/>
<g><rect x="580.0" y="520.5" width="224.0" height="27.0" rx="3" fill="#111716" stroke="#d4a85f" stroke-opacity=".82"/><text x="592.0" y="538.0" fill="#929b96" font-family="monospace" font-size="11" font-weight="600">donations beta -.25 / -.31</text></g>
<path d="M506.0,550.0 C541.5,550.0 544.5,566.0 580.0,566.0" fill="none" stroke="#d4a85f" stroke-opacity="0.42" stroke-width="1.4"/>
<g><rect x="580.0" y="552.5" width="224.0" height="27.0" rx="3" fill="#111716" stroke="#d4a85f" stroke-opacity=".82"/><text x="592.0" y="570.0" fill="#929b96" font-family="monospace" font-size="11" font-weight="600">advocacy OR .66 / .74</text></g>
<path d="M506.0,550.0 C541.5,550.0 544.5,598.0 580.0,598.0" fill="none" stroke="#d4a85f" stroke-opacity="0.42" stroke-width="1.4"/>
<g><rect x="580.0" y="584.5" width="224.0" height="27.0" rx="3" fill="#111716" stroke="#d4a85f" stroke-opacity=".82"/><text x="592.0" y="602.0" fill="#929b96" font-family="monospace" font-size="11" font-weight="600">persists with sentience controls</text></g>
<polygon points="1030.0,330.6 1050.8,339.2 1059.4,360.0 1050.8,380.8 1030.0,389.4 1009.2,380.8 1000.6,360.0 1009.2,339.2" fill="none" stroke="#44504d" stroke-opacity="0.34"/>
<polygon points="1030.0,301.1 1071.6,318.4 1088.9,360.0 1071.6,401.6 1030.0,418.9 988.4,401.6 971.1,360.0 988.4,318.4" fill="none" stroke="#44504d" stroke-opacity="0.34"/>
<polygon points="1030.0,271.7 1092.4,297.6 1118.3,360.0 1092.4,422.4 1030.0,448.3 967.6,422.4 941.7,360.0 967.6,297.6" fill="none" stroke="#44504d" stroke-opacity="0.34"/>
<polygon points="1030.0,242.3 1113.2,276.8 1147.7,360.0 1113.2,443.2 1030.0,477.7 946.8,443.2 912.3,360.0 946.8,276.8" fill="none" stroke="#44504d" stroke-opacity="0.7"/>
<polygon points="1030.0,212.9 1134.0,256.0 1177.1,360.0 1134.0,464.0 1030.0,507.1 926.0,464.0 882.9,360.0 926.0,256.0" fill="none" stroke="#44504d" stroke-opacity="0.34"/>
<polygon points="1030.0,183.4 1154.9,235.1 1206.6,360.0 1154.9,484.9 1030.0,536.6 905.1,484.9 853.4,360.0 905.1,235.1" fill="none" stroke="#44504d" stroke-opacity="0.34"/>
<polygon points="1030.0,154.0 1175.7,214.3 1236.0,360.0 1175.7,505.7 1030.0,566.0 884.3,505.7 824.0,360.0 884.3,214.3" fill="none" stroke="#44504d" stroke-opacity="0.34"/>
<circle cx="1030.0" cy="212.9" r="5" fill="#d4a85f"/>
<text x="1030.0" y="128.0" fill="#929b96" font-family="monospace" font-size="9" text-anchor="middle">1</text>
<circle cx="1092.4" cy="297.6" r="5" fill="#70a39a"/>
<text x="1196.2" y="196.8" fill="#929b96" font-family="monospace" font-size="9" text-anchor="middle">2</text>
<circle cx="1206.6" cy="360.0" r="5" fill="#d4a85f"/>
<text x="1265.0" y="363.0" fill="#929b96" font-family="monospace" font-size="9" text-anchor="middle">3</text>
<circle cx="1113.2" cy="443.2" r="5" fill="#70a39a"/>
<text x="1196.2" y="529.2" fill="#929b96" font-family="monospace" font-size="9" text-anchor="middle">4</text>
<circle cx="1030.0" cy="507.1" r="5" fill="#d4a85f"/>
<text x="1030.0" y="598.0" fill="#929b96" font-family="monospace" font-size="9" text-anchor="middle">5</text>
<circle cx="988.4" cy="401.6" r="5" fill="#70a39a"/>
<text x="863.8" y="529.2" fill="#929b96" font-family="monospace" font-size="9" text-anchor="middle">6</text>
<circle cx="853.4" cy="360.0" r="5" fill="#d4a85f"/>
<text x="795.0" y="363.0" fill="#929b96" font-family="monospace" font-size="9" text-anchor="middle">7</text>
<circle cx="946.8" cy="276.8" r="5" fill="#70a39a"/>
<text x="863.8" y="196.8" fill="#929b96" font-family="monospace" font-size="9" text-anchor="middle">8</text>
<polygon points="1030.0,212.9 1092.4,297.6 1206.6,360.0 1113.2,443.2 1030.0,507.1 988.4,401.6 853.4,360.0 946.8,276.8" fill="#d4a85f" fill-opacity=".12" stroke="#efd18d" stroke-width="1.8"/>
<text x="1030" y="356" fill="#e5e4dc" font-family="monospace" font-size="28" font-weight="700" text-anchor="middle">4.00</text>
<text x="1030" y="378" fill="#929b96" font-family="monospace" font-size="9" text-anchor="middle">CORRECTED MEAN / 7</text>
<circle cx="870" cy="666" r="5" fill="#d4a85f"/><text x="883" y="670" fill="#929b96" font-family="monospace" font-size="9">biological priority</text>
<circle cx="1010" cy="666" r="5" fill="#70a39a"/><text x="1023" y="670" fill="#929b96" font-family="monospace" font-size="9">digital priority</text>
<circle cx="1140" cy="666" r="5" fill="#e5e4dc" stroke="#d4a85f"/><text x="1153" y="670" fill="#929b96" font-family="monospace" font-size="9">configured receiver</text>
</svg>
